<?xml version="1.0" encoding="UTF-8"?>
<svg id="Layer_2" data-name="Layer 2" xmlns="http://www.w3.org/2000/svg" viewBox="0 0 825.85 766.77">
  <defs>
    <style>
      .cls-1 {
        fill: #e73a68;
      }
    </style>
  </defs>
  <g id="Calque_1" data-name="Calque 1">
    <path class="cls-1" d="M668.35,301.24l-33.25,159.4,129.06-.21.21,129.37-156.52.25-36.3,175.97-135.15.22,36.3-175.97-184.91.3-36.3,175.97-134.13.22,36.3-175.97-153.45.25-.21-129.37,180.86-.29,33.3-159.4-152.42.25-.21-129.37,179.84-.29L276.64.73l134.13-.22-35.28,171.83,184.95-.3L595.73.22l135.15-.22-35.28,171.83,130.04-.21.21,129.37-157.49.25ZM533.2,301.46l-184.91.3-33.3,159.4,184.95-.3,33.25-159.4Z"/>
  </g>
</svg>